<svg width="38" height="19" viewBox="0 0 38 19" fill="none" xmlns="http://www.w3.org/2000/svg">
    <path
        d="M5.64275 5.32605C5.7037 5.32605 5.75774 5.35055 5.80483 5.39954L6.24539 5.89661C6.00157 6.21071 5.70094 6.45133 5.3435 6.61846C4.98884 6.7856 4.56214 6.86917 4.06339 6.86917C3.6173 6.86917 3.21553 6.78992 2.8581 6.63143C2.50344 6.47294 2.20003 6.25249 1.94789 5.97009C1.69575 5.68769 1.5018 5.35055 1.36602 4.95865C1.23302 4.56674 1.16652 4.13882 1.16652 3.67488C1.16652 3.20518 1.23857 2.77581 1.38265 2.38679C1.52673 1.99489 1.729 1.65774 1.98945 1.37534C2.25268 1.09294 2.56577 0.873933 2.92875 0.718332C3.29172 0.559844 3.69349 0.480591 4.13404 0.480591C4.57184 0.480591 4.95975 0.555514 5.29779 0.70536C5.63859 0.855207 5.92814 1.05116 6.16643 1.29321L5.79237 1.83352C5.7702 1.8681 5.74111 1.89836 5.70509 1.92429C5.67184 1.95023 5.62474 1.96319 5.56378 1.96319C5.52222 1.96319 5.47927 1.95167 5.43494 1.92861C5.39061 1.90268 5.34212 1.87242 5.28947 1.83784C5.23683 1.80038 5.17587 1.76004 5.1066 1.71681C5.03733 1.67359 4.95697 1.63468 4.86554 1.60011C4.7741 1.56265 4.66743 1.53238 4.54551 1.50934C4.42637 1.4834 4.28782 1.47043 4.12989 1.47043C3.86113 1.47043 3.61452 1.52087 3.39009 1.62172C3.16842 1.71969 2.97724 1.86377 2.81653 2.05396C2.65583 2.24127 2.53114 2.4718 2.44248 2.74555C2.35381 3.01643 2.30948 3.3262 2.30948 3.67488C2.30948 4.02644 2.35658 4.33909 2.45079 4.61285C2.54777 4.8866 2.678 5.11714 2.84147 5.30443C3.00495 5.49174 3.19752 5.63583 3.41918 5.73668C3.64085 5.83466 3.87913 5.88364 4.13404 5.88364C4.28645 5.88364 4.4236 5.875 4.54551 5.85771C4.6702 5.84042 4.7838 5.81305 4.88632 5.77559C4.99161 5.73812 5.08997 5.69058 5.18141 5.63295C5.27562 5.57243 5.36844 5.49895 5.45987 5.4125C5.48759 5.38656 5.51668 5.3664 5.54716 5.35199C5.57763 5.3347 5.6095 5.32605 5.64275 5.32605ZM9.65877 3.5236C9.86929 3.5236 10.0521 3.49622 10.2073 3.44147C10.3653 3.38671 10.4941 3.3118 10.5939 3.2167C10.6964 3.11873 10.7726 3.00346 10.8225 2.87091C10.8723 2.73835 10.8973 2.59283 10.8973 2.43434C10.8973 2.11736 10.7962 1.87386 10.5939 1.70384C10.3944 1.53383 10.0882 1.44882 9.67535 1.44882H8.96052V3.5236H9.65877ZM12.5348 6.8H11.5249C11.3336 6.8 11.1951 6.7222 11.1092 6.56659L9.84577 4.5653C9.79864 4.49038 9.74601 4.43707 9.68779 4.40537C9.63237 4.37368 9.54928 4.35783 9.43843 4.35783H8.96052V6.8H7.84248V0.54975H9.67535C10.0827 0.54975 10.4318 0.594419 10.7227 0.683748C11.0164 0.770199 11.2561 0.892668 11.4417 1.05116C11.6301 1.20964 11.7687 1.39983 11.8573 1.62172C11.946 1.84072 11.9903 2.08278 11.9903 2.34789C11.9903 2.55824 11.9599 2.75708 11.899 2.94439C11.8407 3.13169 11.7549 3.3017 11.6412 3.45444C11.5304 3.60716 11.3919 3.74116 11.2256 3.85642C11.0621 3.97168 10.8751 4.06245 10.6645 4.12874C10.7366 4.17196 10.8031 4.22383 10.864 4.28434C10.925 4.34198 10.9804 4.41114 11.0303 4.49182L12.5348 6.8ZM19.6653 3.67488C19.6653 4.13306 19.5919 4.5581 19.445 4.95C19.3009 5.33902 19.0959 5.67617 18.8299 5.96145C18.5639 6.24673 18.2438 6.47006 17.8698 6.63143C17.4958 6.78992 17.0801 6.86917 16.623 6.86917C16.1686 6.86917 15.7543 6.78992 15.3803 6.63143C15.0062 6.47006 14.6848 6.24673 14.416 5.96145C14.15 5.67617 13.9436 5.33902 13.7967 4.95C13.6499 4.5581 13.5765 4.13306 13.5765 3.67488C13.5765 3.2167 13.6499 2.7931 13.7967 2.40408C13.9436 2.01218 14.15 1.67359 14.416 1.38831C14.6848 1.10302 15.0062 0.88114 15.3803 0.722652C15.7543 0.561278 16.1686 0.480591 16.623 0.480591C16.9277 0.480591 17.2145 0.518052 17.4833 0.592976C17.7521 0.665021 17.9986 0.768756 18.2231 0.904196C18.4475 1.03675 18.6484 1.19956 18.8257 1.39263C19.0058 1.58282 19.1582 1.79606 19.2829 2.03235C19.4076 2.26865 19.5018 2.52511 19.5655 2.80175C19.632 3.07838 19.6653 3.36943 19.6653 3.67488ZM18.5223 3.67488C18.5223 3.33197 18.478 3.02507 18.3893 2.75419C18.3007 2.48044 18.1746 2.24848 18.0112 2.05828C17.8477 1.8681 17.6482 1.72258 17.4127 1.62172C17.1799 1.52087 16.9167 1.47043 16.623 1.47043C16.3293 1.47043 16.0647 1.52087 15.8291 1.62172C15.5964 1.72258 15.3969 1.8681 15.2306 2.05828C15.0671 2.24848 14.9411 2.48044 14.8524 2.75419C14.7638 3.02507 14.7194 3.33197 14.7194 3.67488C14.7194 4.01779 14.7638 4.32613 14.8524 4.59988C14.9411 4.87075 15.0671 5.10129 15.2306 5.29147C15.3969 5.47878 15.5964 5.62286 15.8291 5.72372C16.0647 5.82458 16.3293 5.875 16.623 5.875C16.9167 5.875 17.1799 5.82458 17.4127 5.72372C17.6482 5.62286 17.8477 5.47878 18.0112 5.29147C18.1746 5.10129 18.3007 4.87075 18.3893 4.59988C18.478 4.32613 18.5223 4.01779 18.5223 3.67488ZM29.3531 0.54975L27.487 6.8H26.477L25.1637 2.52943C25.1276 2.42569 25.0944 2.2989 25.0639 2.14905C25.0473 2.2211 25.0307 2.28882 25.014 2.35221C24.9974 2.41561 24.9794 2.47468 24.96 2.52943L23.6342 6.8H22.6201L20.7581 0.54975H21.6933C21.7902 0.54975 21.8705 0.574249 21.9343 0.623239C22.0008 0.669342 22.0451 0.732737 22.0673 0.813424L23.0898 4.55233C23.1119 4.64455 23.1327 4.74541 23.152 4.8549C23.1742 4.96152 23.1964 5.07391 23.2186 5.19206C23.2407 5.07102 23.2643 4.9572 23.2892 4.85058C23.317 4.74396 23.3461 4.64455 23.3765 4.55233L24.5568 0.813424C24.579 0.747143 24.622 0.686634 24.6857 0.63188C24.7522 0.577127 24.8326 0.54975 24.9268 0.54975H25.2551C25.352 0.54975 25.4311 0.574249 25.492 0.623239C25.553 0.67222 25.5987 0.735615 25.6292 0.813424L26.8054 4.55233C26.8635 4.73099 26.9162 4.93703 26.9633 5.17044C26.9993 4.9428 27.0395 4.73675 27.0839 4.55233L28.1063 0.813424C28.1229 0.741379 28.1644 0.679427 28.2309 0.62756C28.3002 0.575684 28.382 0.54975 28.4761 0.54975H29.3531ZM36.2589 3.67488C36.2589 4.13306 36.1854 4.55378 36.0386 4.93703C35.8917 5.32029 35.6854 5.65023 35.4193 5.92687C35.1533 6.2035 34.8333 6.41819 34.4593 6.57091C34.0852 6.72364 33.6696 6.8 33.2124 6.8H30.9224V0.54975H33.2124C33.6696 0.54975 34.0852 0.62756 34.4593 0.783161C34.8333 0.935894 35.1533 1.15057 35.4193 1.42721C35.6854 1.70097 35.8917 2.02947 36.0386 2.41273C36.1854 2.79599 36.2589 3.2167 36.2589 3.67488ZM35.1118 3.67488C35.1118 3.33197 35.0674 3.02507 34.9787 2.75419C34.8929 2.48044 34.7668 2.24991 34.6006 2.06261C34.4371 1.87242 34.2376 1.7269 34.0021 1.62604C33.7693 1.52519 33.5061 1.47475 33.2124 1.47475H32.0445V5.875H33.2124C33.5061 5.875 33.7693 5.82458 34.0021 5.72372C34.2376 5.62286 34.4371 5.47878 34.6006 5.29147C34.7668 5.10129 34.8929 4.87075 34.9787 4.59988C35.0674 4.32613 35.1118 4.01779 35.1118 3.67488ZM4.69097 14.9999L3.95949 12.9208C3.92347 12.8286 3.88606 12.7191 3.84727 12.5923C3.80848 12.4655 3.76969 12.3287 3.73089 12.1817C3.69487 12.3287 3.65747 12.467 3.61868 12.5967C3.57989 12.7235 3.54248 12.8344 3.50646 12.9295L2.77913 14.9999H4.69097ZM6.66517 17.36H5.80068C5.7037 17.36 5.62474 17.3355 5.56378 17.2865C5.50283 17.2347 5.4571 17.1712 5.42662 17.0964L4.97775 15.8212H2.4882L2.03933 17.0964C2.01716 17.1626 1.97421 17.2232 1.91049 17.2779C1.84676 17.3326 1.76779 17.36 1.67358 17.36H0.800781L3.16566 11.1097H4.30445L6.66517 17.36ZM10.3913 16.422C10.6074 16.422 10.8 16.3846 10.969 16.3096C11.1407 16.2347 11.2848 16.1296 11.4013 15.9942C11.5176 15.8586 11.6063 15.6944 11.6672 15.5014C11.7309 15.3083 11.7628 15.0922 11.7628 14.853V11.1097H12.8808V14.853C12.8808 15.2247 12.8226 15.5691 12.7063 15.8861C12.5926 16.2002 12.4278 16.4724 12.2117 16.703C11.9983 16.9307 11.7379 17.1093 11.4303 17.239C11.1228 17.3657 10.7764 17.4292 10.3913 17.4292C10.0033 17.4292 9.65564 17.3657 9.34806 17.239C9.04049 17.1093 8.77869 16.9307 8.56258 16.703C8.34919 16.4724 8.18432 16.2002 8.06795 15.8861C7.95435 15.5691 7.89754 15.2247 7.89754 14.853V11.1097H9.01552V14.8487C9.01552 15.0878 9.04607 15.304 9.10699 15.497C9.17071 15.6901 9.26074 15.8558 9.37717 15.9942C9.49631 16.1296 9.64041 16.2347 9.80939 16.3096C9.98115 16.3846 10.1752 16.422 10.3913 16.422ZM20.3095 14.2349C20.3095 14.6931 20.236 15.1138 20.0892 15.497C19.9423 15.8803 19.736 16.2102 19.4699 16.4869C19.204 16.7635 18.884 16.9782 18.5099 17.1309C18.1358 17.2836 17.7202 17.36 17.263 17.36H14.973V11.1097H17.263C17.7202 11.1097 18.1358 11.1876 18.5099 11.3432C18.884 11.4959 19.204 11.7106 19.4699 11.9873C19.736 12.2609 19.9423 12.5894 20.0892 12.9728C20.236 13.356 20.3095 13.7767 20.3095 14.2349ZM19.1623 14.2349C19.1623 13.8919 19.1181 13.5851 19.0294 13.3142C18.9435 13.0404 18.8175 12.8099 18.6512 12.6226C18.4877 12.4324 18.2882 12.2869 18.0527 12.186C17.8199 12.0852 17.5567 12.0348 17.263 12.0348H16.0951V16.435H17.263C17.5567 16.435 17.8199 16.3846 18.0527 16.2837C18.2882 16.1828 18.4877 16.0388 18.6512 15.8515C18.8175 15.6613 18.9435 15.4308 19.0294 15.1599C19.1181 14.8861 19.1623 14.5778 19.1623 14.2349ZM23.2499 17.36H22.1278V11.1097H23.2499V17.36Z"
        fill="#4F4F4F" />
    <path
        d="M36.853 10.5616C35.6477 10.8978 34.2346 11.042 32.9277 11.042C31.6208 11.042 30.2077 10.8978 29.0024 10.5616L28.7715 11.5222C29.6304 11.7623 30.6187 11.9208 31.5423 12.0025V18.246H32.4659V15.3643H33.3895V18.246H34.3131V12.0025C35.2367 11.9208 36.2249 11.7623 37.0838 11.5222L36.853 10.5616ZM32.9277 10.5616C33.4357 10.5616 33.8513 10.1294 33.8513 9.60113C33.8513 9.07278 33.4357 8.64061 32.9277 8.64061C32.4197 8.64061 32.0041 9.07278 32.0041 9.60113C32.0041 10.1294 32.4197 10.5616 32.9277 10.5616Z"
        fill="#128F6E" />
    <path
        d="M33.1597 10.5616C31.9543 10.8978 30.5412 11.042 29.2343 11.042C27.9275 11.042 26.5144 10.8978 25.309 10.5616L25.0781 11.5222C25.9371 11.7623 26.9254 11.9208 27.8489 12.0025V18.246H28.7725V15.3643H29.6962V18.246H30.6198V12.0025C31.5433 11.9208 32.5316 11.7623 33.3906 11.5222L33.1597 10.5616ZM29.2343 10.5616C29.7423 10.5616 30.1579 10.1294 30.1579 9.60113C30.1579 9.07278 29.7423 8.64061 29.2343 8.64061C28.7264 8.64061 28.3108 9.07278 28.3108 9.60113C28.3108 10.1294 28.7264 10.5616 29.2343 10.5616Z"
        fill="#128F6E" />
    <path
        d="M19.4621 3.72C19.4621 5.42104 18.1362 6.8 16.5006 6.8C14.865 6.8 13.5391 5.42104 13.5391 3.72C13.5391 2.01896 14.865 0.639999 16.5006 0.639999C18.1362 0.639999 19.4621 2.01896 19.4621 3.72Z"
        fill="#4F4F4F" />
</svg>