<svg width="50" height="50" viewBox="0 0 50 50" fill="none" xmlns="http://www.w3.org/2000/svg">
    <circle cx="25" cy="25" r="25" fill="#128F6E" />
    <circle cx="25" cy="25" r="22" fill="white" />
    <path
        d="M11.6427 21.326C11.7037 21.326 11.7577 21.3505 11.8048 21.3995L12.2454 21.8966C12.0016 22.2107 11.7009 22.4513 11.3435 22.6185C10.9888 22.7856 10.5621 22.8692 10.0634 22.8692C9.6173 22.8692 9.21553 22.7899 8.8581 22.6314C8.50344 22.4729 8.20003 22.2525 7.94789 21.9701C7.69575 21.6877 7.5018 21.3505 7.36602 20.9586C7.23302 20.5667 7.16652 20.1388 7.16652 19.6749C7.16652 19.2052 7.23857 18.7758 7.38265 18.3868C7.52673 17.9949 7.729 17.6577 7.98945 17.3753C8.25268 17.0929 8.56577 16.8739 8.92875 16.7183C9.29172 16.5598 9.69349 16.4806 10.134 16.4806C10.5718 16.4806 10.9597 16.5555 11.2978 16.7054C11.6386 16.8552 11.9281 17.0512 12.1664 17.2932L11.7924 17.8335C11.7702 17.8681 11.7411 17.8984 11.7051 17.9243C11.6718 17.9502 11.6247 17.9632 11.5638 17.9632C11.5222 17.9632 11.4793 17.9517 11.4349 17.9286C11.3906 17.9027 11.3421 17.8724 11.2895 17.8378C11.2368 17.8004 11.1759 17.76 11.1066 17.7168C11.0373 17.6736 10.957 17.6347 10.8655 17.6001C10.7741 17.5626 10.6674 17.5324 10.5455 17.5093C10.4264 17.4834 10.2878 17.4704 10.1299 17.4704C9.86113 17.4704 9.61452 17.5209 9.39009 17.6217C9.16842 17.7197 8.97724 17.8638 8.81653 18.054C8.65583 18.2413 8.53114 18.4718 8.44248 18.7456C8.35381 19.0164 8.30948 19.3262 8.30948 19.6749C8.30948 20.0264 8.35658 20.3391 8.45079 20.6129C8.54777 20.8866 8.678 21.1171 8.84147 21.3044C9.00495 21.4917 9.19752 21.6358 9.41918 21.7367C9.64085 21.8347 9.87913 21.8836 10.134 21.8836C10.2864 21.8836 10.4236 21.875 10.5455 21.8577C10.6702 21.8404 10.7838 21.813 10.8863 21.7756C10.9916 21.7381 11.09 21.6906 11.1814 21.6329C11.2756 21.5724 11.3684 21.4989 11.4599 21.4125C11.4876 21.3866 11.5167 21.3664 11.5472 21.352C11.5776 21.3347 11.6095 21.326 11.6427 21.326ZM15.6588 19.5236C15.8693 19.5236 16.0521 19.4962 16.2073 19.4415C16.3653 19.3867 16.4941 19.3118 16.5939 19.2167C16.6964 19.1187 16.7726 19.0035 16.8225 18.8709C16.8723 18.7383 16.8973 18.5928 16.8973 18.4343C16.8973 18.1174 16.7962 17.8739 16.5939 17.7038C16.3944 17.5338 16.0882 17.4488 15.6754 17.4488H14.9605V19.5236H15.6588ZM18.5348 22.8H17.5249C17.3336 22.8 17.1951 22.7222 17.1092 22.5666L15.8458 20.5653C15.7986 20.4904 15.746 20.4371 15.6878 20.4054C15.6324 20.3737 15.5493 20.3578 15.4384 20.3578H14.9605V22.8H13.8425V16.5497H15.6754C16.0827 16.5497 16.4318 16.5944 16.7227 16.6837C17.0164 16.7702 17.2561 16.8927 17.4417 17.0512C17.6301 17.2096 17.7687 17.3998 17.8573 17.6217C17.946 17.8407 17.9903 18.0828 17.9903 18.3479C17.9903 18.5582 17.9599 18.7571 17.899 18.9444C17.8407 19.1317 17.7549 19.3017 17.6412 19.4544C17.5304 19.6072 17.3919 19.7412 17.2256 19.8564C17.0621 19.9717 16.8751 20.0625 16.6645 20.1287C16.7366 20.172 16.8031 20.2238 16.864 20.2843C16.925 20.342 16.9804 20.4111 17.0303 20.4918L18.5348 22.8ZM25.6653 19.6749C25.6653 20.1331 25.5919 20.5581 25.445 20.95C25.3009 21.339 25.0959 21.6762 24.8299 21.9615C24.5639 22.2467 24.2438 22.4701 23.8698 22.6314C23.4958 22.7899 23.0801 22.8692 22.623 22.8692C22.1686 22.8692 21.7543 22.7899 21.3803 22.6314C21.0062 22.4701 20.6848 22.2467 20.416 21.9615C20.15 21.6762 19.9436 21.339 19.7967 20.95C19.6499 20.5581 19.5765 20.1331 19.5765 19.6749C19.5765 19.2167 19.6499 18.7931 19.7967 18.4041C19.9436 18.0122 20.15 17.6736 20.416 17.3883C20.6848 17.103 21.0062 16.8811 21.3803 16.7227C21.7543 16.5613 22.1686 16.4806 22.623 16.4806C22.9277 16.4806 23.2145 16.5181 23.4833 16.593C23.7521 16.665 23.9986 16.7688 24.2231 16.9042C24.4475 17.0368 24.6484 17.1996 24.8257 17.3926C25.0058 17.5828 25.1582 17.7961 25.2829 18.0323C25.4076 18.2686 25.5018 18.5251 25.5655 18.8017C25.632 19.0784 25.6653 19.3694 25.6653 19.6749ZM24.5223 19.6749C24.5223 19.332 24.478 19.0251 24.3893 18.7542C24.3007 18.4804 24.1746 18.2485 24.0112 18.0583C23.8477 17.8681 23.6482 17.7226 23.4127 17.6217C23.1799 17.5209 22.9167 17.4704 22.623 17.4704C22.3293 17.4704 22.0647 17.5209 21.8291 17.6217C21.5964 17.7226 21.3969 17.8681 21.2306 18.0583C21.0671 18.2485 20.9411 18.4804 20.8524 18.7542C20.7638 19.0251 20.7194 19.332 20.7194 19.6749C20.7194 20.0178 20.7638 20.3261 20.8524 20.5999C20.9411 20.8708 21.0671 21.1013 21.2306 21.2915C21.3969 21.4788 21.5964 21.6229 21.8291 21.7237C22.0647 21.8246 22.3293 21.875 22.623 21.875C22.9167 21.875 23.1799 21.8246 23.4127 21.7237C23.6482 21.6229 23.8477 21.4788 24.0112 21.2915C24.1746 21.1013 24.3007 20.8708 24.3893 20.5999C24.478 20.3261 24.5223 20.0178 24.5223 19.6749ZM35.3531 16.5497L33.487 22.8H32.477L31.1637 18.5294C31.1276 18.4257 31.0944 18.2989 31.0639 18.1491C31.0473 18.2211 31.0307 18.2888 31.014 18.3522C30.9974 18.4156 30.9794 18.4747 30.96 18.5294L29.6342 22.8H28.6201L26.7581 16.5497H27.6933C27.7902 16.5497 27.8705 16.5742 27.9343 16.6232C28.0008 16.6693 28.0451 16.7327 28.0673 16.8134L29.0898 20.5523C29.1119 20.6445 29.1327 20.7454 29.152 20.8549C29.1742 20.9615 29.1964 21.0739 29.2186 21.1921C29.2407 21.071 29.2643 20.9572 29.2892 20.8506C29.317 20.744 29.3461 20.6445 29.3765 20.5523L30.5568 16.8134C30.579 16.7471 30.622 16.6866 30.6857 16.6319C30.7522 16.5771 30.8326 16.5497 30.9268 16.5497H31.2551C31.352 16.5497 31.4311 16.5742 31.492 16.6232C31.553 16.6722 31.5987 16.7356 31.6292 16.8134L32.8054 20.5523C32.8635 20.731 32.9162 20.937 32.9633 21.1704C32.9993 20.9428 33.0395 20.7368 33.0839 20.5523L34.1063 16.8134C34.1229 16.7414 34.1644 16.6794 34.2309 16.6276C34.3002 16.5757 34.382 16.5497 34.4761 16.5497H35.3531ZM42.2589 19.6749C42.2589 20.1331 42.1854 20.5538 42.0386 20.937C41.8917 21.3203 41.6854 21.6502 41.4193 21.9269C41.1533 22.2035 40.8333 22.4182 40.4593 22.5709C40.0852 22.7236 39.6696 22.8 39.2124 22.8H36.9224V16.5497H39.2124C39.6696 16.5497 40.0852 16.6276 40.4593 16.7832C40.8333 16.9359 41.1533 17.1506 41.4193 17.4272C41.6854 17.701 41.8917 18.0295 42.0386 18.4127C42.1854 18.796 42.2589 19.2167 42.2589 19.6749ZM41.1118 19.6749C41.1118 19.332 41.0674 19.0251 40.9787 18.7542C40.8929 18.4804 40.7668 18.2499 40.6006 18.0626C40.4371 17.8724 40.2376 17.7269 40.0021 17.626C39.7693 17.5252 39.5061 17.4748 39.2124 17.4748H38.0445V21.875H39.2124C39.5061 21.875 39.7693 21.8246 40.0021 21.7237C40.2376 21.6229 40.4371 21.4788 40.6006 21.2915C40.7668 21.1013 40.8929 20.8708 40.9787 20.5999C41.0674 20.3261 41.1118 20.0178 41.1118 19.6749ZM10.691 30.9999L9.95949 28.9208C9.92347 28.8286 9.88606 28.7191 9.84727 28.5923C9.80848 28.4655 9.76969 28.3287 9.73089 28.1817C9.69487 28.3287 9.65747 28.467 9.61868 28.5967C9.57989 28.7235 9.54248 28.8344 9.50646 28.9295L8.77913 30.9999H10.691ZM12.6652 33.36H11.8007C11.7037 33.36 11.6247 33.3355 11.5638 33.2865C11.5028 33.2347 11.4571 33.1712 11.4266 33.0964L10.9778 31.8212H8.4882L8.03933 33.0964C8.01716 33.1626 7.97421 33.2232 7.91049 33.2779C7.84676 33.3326 7.76779 33.36 7.67358 33.36H6.80078L9.16566 27.1097H10.3045L12.6652 33.36ZM16.3913 32.422C16.6074 32.422 16.8 32.3846 16.969 32.3096C17.1407 32.2347 17.2848 32.1296 17.4013 31.9942C17.5176 31.8586 17.6063 31.6944 17.6672 31.5014C17.7309 31.3083 17.7628 31.0922 17.7628 30.853V27.1097H18.8808V30.853C18.8808 31.2247 18.8226 31.5691 18.7063 31.8861C18.5926 32.2002 18.4278 32.4724 18.2117 32.703C17.9983 32.9307 17.7379 33.1093 17.4303 33.239C17.1228 33.3657 16.7764 33.4292 16.3913 33.4292C16.0033 33.4292 15.6556 33.3657 15.3481 33.239C15.0405 33.1093 14.7787 32.9307 14.5626 32.703C14.3492 32.4724 14.1843 32.2002 14.0679 31.8861C13.9543 31.5691 13.8975 31.2247 13.8975 30.853V27.1097H15.0155V30.8487C15.0155 31.0878 15.0461 31.304 15.107 31.497C15.1707 31.6901 15.2607 31.8558 15.3772 31.9942C15.4963 32.1296 15.6404 32.2347 15.8094 32.3096C15.9812 32.3846 16.1752 32.422 16.3913 32.422ZM26.3095 30.2349C26.3095 30.6931 26.236 31.1138 26.0892 31.497C25.9423 31.8803 25.736 32.2102 25.4699 32.4869C25.204 32.7635 24.884 32.9782 24.5099 33.1309C24.1358 33.2836 23.7202 33.36 23.263 33.36H20.973V27.1097H23.263C23.7202 27.1097 24.1358 27.1876 24.5099 27.3432C24.884 27.4959 25.204 27.7106 25.4699 27.9873C25.736 28.2609 25.9423 28.5894 26.0892 28.9728C26.236 29.356 26.3095 29.7767 26.3095 30.2349ZM25.1623 30.2349C25.1623 29.8919 25.1181 29.5851 25.0294 29.3142C24.9435 29.0404 24.8175 28.8099 24.6512 28.6226C24.4877 28.4324 24.2882 28.2869 24.0527 28.186C23.8199 28.0852 23.5567 28.0348 23.263 28.0348H22.0951V32.435H23.263C23.5567 32.435 23.8199 32.3846 24.0527 32.2837C24.2882 32.1828 24.4877 32.0388 24.6512 31.8515C24.8175 31.6613 24.9435 31.4308 25.0294 31.1599C25.1181 30.8861 25.1623 30.5778 25.1623 30.2349ZM29.2499 33.36H28.1278V27.1097H29.2499V33.36Z"
        fill="#4F4F4F" />
    <path
        d="M42.853 26.5616C41.6477 26.8978 40.2346 27.042 38.9277 27.042C37.6208 27.042 36.2077 26.8978 35.0024 26.5616L34.7715 27.5222C35.6304 27.7623 36.6187 27.9208 37.5423 28.0025V34.246H38.4659V31.3643H39.3895V34.246H40.3131V28.0025C41.2367 27.9208 42.2249 27.7623 43.0838 27.5222L42.853 26.5616ZM38.9277 26.5616C39.4357 26.5616 39.8513 26.1294 39.8513 25.6011C39.8513 25.0728 39.4357 24.6406 38.9277 24.6406C38.4197 24.6406 38.0041 25.0728 38.0041 25.6011C38.0041 26.1294 38.4197 26.5616 38.9277 26.5616Z"
        fill="#128F6E" />
    <path
        d="M39.1597 26.5616C37.9543 26.8978 36.5412 27.042 35.2343 27.042C33.9275 27.042 32.5144 26.8978 31.309 26.5616L31.0781 27.5222C31.9371 27.7623 32.9254 27.9208 33.8489 28.0025V34.246H34.7725V31.3643H35.6962V34.246H36.6198V28.0025C37.5433 27.9208 38.5316 27.7623 39.3906 27.5222L39.1597 26.5616ZM35.2343 26.5616C35.7423 26.5616 36.1579 26.1294 36.1579 25.6011C36.1579 25.0728 35.7423 24.6406 35.2343 24.6406C34.7264 24.6406 34.3108 25.0728 34.3108 25.6011C34.3108 26.1294 34.7264 26.5616 35.2343 26.5616Z"
        fill="#128F6E" />
    <path
        d="M25.4621 19.72C25.4621 21.421 24.1362 22.8 22.5006 22.8C20.865 22.8 19.5391 21.421 19.5391 19.72C19.5391 18.019 20.865 16.64 22.5006 16.64C24.1362 16.64 25.4621 18.019 25.4621 19.72Z"
        fill="#4F4F4F" />
</svg>