<svg width="26" height="26" viewBox="0 0 26 26" fill="none" xmlns="http://www.w3.org/2000/svg">
    <circle cx="13" cy="13" r="12.5" fill="white" stroke="#10724F" />
    <path
        d="M22.6117 8.9999C20.5811 9.52485 18.2015 9.74995 16.0005 9.74995C13.7988 9.74995 11.4192 9.52485 9.38891 8.9999L9 10.4999C10.4467 10.8749 12.1113 11.1224 13.6669 11.25V21H15.2224V16.4999H16.7779V21H18.3334V11.25C19.889 11.1224 21.5534 10.8749 23 10.4999L22.6117 8.9999ZM16.0005 8.9999C16.8557 8.9999 17.556 8.32489 17.556 7.49995C17.556 6.67487 16.8557 6 16.0005 6C15.1446 6 14.445 6.67487 14.445 7.49995C14.445 8.32489 15.1446 8.9999 16.0005 8.9999Z"
        fill="#128F6E" />
    <path
        d="M15.6387 8.9999C13.754 9.52485 11.5437 9.74995 9.50003 9.74995C7.45616 9.74995 5.24618 9.52485 3.36113 8.9999L3 10.4999C4.34329 10.8749 5.88895 11.1224 7.33333 11.25V21H8.77778V16.4999H10.2223V21H11.6669V11.25C13.1112 11.1224 14.6568 10.8749 16 10.4999L15.6387 8.9999ZM9.50003 8.9999C10.2944 8.9999 10.9443 8.32489 10.9443 7.49995C10.9443 6.67487 10.2944 6 9.50003 6C8.70566 6 8.05559 6.67487 8.05559 7.49995C8.05559 8.32489 8.70566 8.9999 9.50003 8.9999Z"
        fill="#128F6E" />
</svg>